<?xml version="1.0" encoding="iso-8859-1"?>
<!-- Generator: Adobe Illustrator 19.0.0, SVG Export Plug-In . SVG Version: 6.00 Build 0)  -->
<svg version="1.1" id="Layer_1" xmlns="http://www.w3.org/2000/svg" xmlns:xlink="http://www.w3.org/1999/xlink" x="0px" y="0px"
	 viewBox="0 0 512 512" style="enable-background:new 0 0 512 512;" xml:space="preserve">
<path style="fill:#B1EAE5;" d="M507.242,206.72C484.267,88.918,380.526,0,256,0C114.615,0,0,114.615,0,256
	c0,124.526,88.918,228.267,206.72,251.242L507.242,206.72z"/>
<path style="fill:#7DDCD4;" d="M512,256c0-16.859-1.647-33.331-4.758-49.28L356.174,55.652l-15.961,84.653l-67.014-0.671
	l-83.981-83.981l-33.391,400.696l50.894,50.894C222.669,510.353,239.141,512,256,512C397.384,512,512,397.384,512,256z"/>
<polygon style="fill:#F63341;" points="333.913,356.174 256,356.174 233.739,372.87 256,389.565 333.913,389.565 "/>
<rect x="178.087" y="356.174" style="fill:#F85C67;" width="77.913" height="33.391"/>
<polygon style="fill:#F63341;" points="333.913,278.261 256,278.261 233.739,294.957 256,311.652 333.913,311.652 "/>
<rect x="178.087" y="278.261" style="fill:#F85C67;" width="77.913" height="33.391"/>
<polygon style="fill:#F63341;" points="333.913,200.348 256,200.348 233.739,217.043 256,233.739 333.913,233.739 "/>
<rect x="178.087" y="200.348" style="fill:#F85C67;" width="77.913" height="33.391"/>
<polygon style="fill:#F63341;" points="333.913,122.435 256,122.435 233.739,139.13 256,155.826 333.913,155.826 "/>
<rect x="178.087" y="122.435" style="fill:#F85C67;" width="77.913" height="33.391"/>
<polygon style="fill:#701C12;" points="322.783,456.348 356.174,456.348 356.174,434.087 339.478,411.826 322.783,434.087 "/>
<rect x="322.783" y="55.652" style="fill:#C92B31;" width="33.391" height="378.435"/>
<polygon style="fill:#9D2422;" points="155.826,456.348 189.217,456.348 189.217,434.087 172.522,411.826 155.826,434.087 "/>
<rect x="155.826" y="55.652" style="fill:#F63341;" width="33.391" height="378.435"/>
<g>
</g>
<g>
</g>
<g>
</g>
<g>
</g>
<g>
</g>
<g>
</g>
<g>
</g>
<g>
</g>
<g>
</g>
<g>
</g>
<g>
</g>
<g>
</g>
<g>
</g>
<g>
</g>
<g>
</g>
</svg>
