<svg id="eu8zjRnbrQO1" xmlns="http://www.w3.org/2000/svg" xmlns:xlink="http://www.w3.org/1999/xlink" viewBox="0 0 640 480" shape-rendering="geometricPrecision" text-rendering="geometricPrecision"><ellipse rx="76.251605" ry="63.311939" transform="matrix(1.040404 0 0 1.092461 84.313225 120.000227)" opacity="0.4" fill="#d479f4" stroke-width="0"/><g transform="translate(.000001 0)"><ellipse rx="116.48267" ry="86.264442" transform="matrix(1 0 0 1.354287 56.405647 61.371007)" fill="#d479f4" stroke-width="0"/></g><ellipse rx="11.553274" ry="29.268293" transform="translate(152.092426 109.370989)" fill="#d2dbed" stroke-width="0"/><ellipse rx="64" ry="48" transform="matrix(1.684851 0 0 1.984595 212.169536 61.371007)" fill="#d479f4" stroke-width="0"/><ellipse rx="80.102696" ry="78.56226" transform="translate(294.582798 129.396663)" fill="#d479f4" stroke-width="0"/><ellipse rx="71.630296" ry="91.779204" transform="matrix(1.419357 0 0 1.107753 374.685494 62.541745)" fill="#d479f4" stroke-width="0"/><ellipse rx="106.290116" ry="80.102696" transform="matrix(1.500001 0 0 2.019233 564.929423 93.966458)" fill="#d479f4" stroke-width="0"/><ellipse rx="1.540436" ry="14.634146" transform="translate(234.505777 381.258024)" fill="#d2dbed" stroke-width="0"/><ellipse rx="76.251605" ry="63.311939" transform="matrix(1.040294-.015155 0.015913 1.092345 214.251244 121.148476)" opacity="0.4" fill="#d479f4" stroke-width="0"/><ellipse rx="76.251605" ry="63.311939" transform="matrix(1.040294-.015155 0.015913 1.092345 313.296895 145.795462)" opacity="0.4" fill="#d479f4" stroke-width="0"/><ellipse rx="76.251605" ry="63.311939" transform="matrix(1.066196-.015532 0.013894 0.953773 464.549672 144.639875)" opacity="0.4" fill="#d479f4" stroke-width="0"/></svg>